<?xml version="1.0" encoding="utf-8"?>
<!-- Generator: Adobe Illustrator 23.1.0, SVG Export Plug-In . SVG Version: 6.00 Build 0)  -->
<svg version="1.1" id="Layer_1" xmlns="http://www.w3.org/2000/svg" xmlns:xlink="http://www.w3.org/1999/xlink" x="0px" y="0px"
	 viewBox="100 100 300 300" style="enable-background:new 0 0 500 500;" xml:space="preserve">
<style type="text/css">
	.st0{fill:#14ADDC;}
	.st1{fill:#05727C;}
	.st2{fill:#B5CC38;}
</style>
<g>
	<polygon class="st0" points="255,242 255,298 267,298 287,298 287,289 267,289 267,274 283,274 283,265 267,265 267,251 287,251 
		289,242 267,242 	"/>
	<polygon class="st0" points="161,242 161,298 173,298 193,298 193,289 173,289 173,274 189,274 189,265 173,265 173,251 193,251 
		195,242 173,242 	"/>
	<path class="st0" d="M134,242h-9h-12v56h12v-20h9c9.9,0,19-6,19-18S143.9,242,134,242z M132,269h-7v-18h7c4.4,0,8,3.5,8,9
		S136.4,269,132,269z"/>
	<path class="st0" d="M245,260c0-12-9.1-18-19-18h-9h-12v56h12v-20h3.8l12.3,20h14l-13.8-21.1C239.9,274.6,245,269,245,260z
		 M217,251h7c4.4,0,8,3.5,8,9s-3.6,9-8,9h-7V251z"/>
	<polygon class="st0" points="339,242 324,242 312,242 297,242 297,251 312,251 312,298 324,298 324,251 337,251 	"/>
	<path class="st0" d="M363,241c-15,0-24,11-24,29s9,29,24,29s24-11,24-29S378,241,363,241z M363,289c-8,0-11-5-11-19s3-19,11-19
		s11,5,11,19S371,289,363,289z"/>
</g>
<g>
	<path class="st1" d="M225.1,213.4c-8.3,0-16-3.7-21.2-10l3.5-1.6L195,189.4v18l3.3-1.5c6.3,8.5,16.1,13.5,26.8,13.5
		c10.9,0,20.3-5.8,24.2-10.4l-4.2-4.2C240.9,209.3,233.8,213.4,225.1,213.4z"/>
	<path class="st1" d="M251.3,165c-6.3-7.9-15.8-12.6-26.2-12.6c-8.6,0-16.9,3.4-23.1,9.3l4.2,4.3c5.1-4.9,11.9-7.6,18.9-7.6
		c8,0,15.3,3.4,20.5,9.2l-3.6,1.6l13,12.1v-18L251.3,165z"/>
</g>
<path class="st0" d="M297.7,203.5c-4.5,0-6.9-2.1-8.9-3.7c-1.6-1.4-2.8-2.4-5.4-2.4c-2.6,0-3.8,1-5.4,2.4c-1.9,1.7-4.3,3.7-8.9,3.7
	s-6.9-2.1-8.9-3.7c-1.6-1.4-2.8-2.4-5.4-2.4v-6c4.5,0,6.9,2.1,8.9,3.7c1.6,1.4,2.8,2.4,5.4,2.4s3.8-1,5.4-2.4
	c1.9-1.7,4.3-3.7,8.9-3.7s6.9,2.1,8.9,3.7c1.6,1.4,2.8,2.4,5.4,2.4s3.8-1,5.4-2.4c1.9-1.7,4.3-3.7,8.9-3.7v6c-2.6,0-3.8,1-5.4,2.4
	C304.7,201.4,302.3,203.5,297.7,203.5z"/>
<path class="st0" d="M297.7,215.5c-4.5,0-6.9-2.1-8.9-3.7c-1.6-1.4-2.8-2.4-5.4-2.4c-2.6,0-3.8,1-5.4,2.4c-1.9,1.7-4.3,3.7-8.9,3.7
	s-6.9-2.1-8.9-3.7c-1.6-1.4-2.8-2.4-5.4-2.4v-6c4.5,0,6.9,2.1,8.9,3.7c1.6,1.4,2.8,2.4,5.4,2.4s3.8-1,5.4-2.4
	c1.9-1.7,4.3-3.7,8.9-3.7s6.9,2.1,8.9,3.7c1.6,1.4,2.8,2.4,5.4,2.4s3.8-1,5.4-2.4c1.9-1.7,4.3-3.7,8.9-3.7v6c-2.6,0-3.8,1-5.4,2.4
	C304.7,213.4,302.3,215.5,297.7,215.5z"/>
<polygon class="st2" points="185,156.2 153.9,187.3 158.1,191.6 167,182.7 167,204.4 113,204.4 113,210.4 173,210.4 173,176.7 
	185,164.7 211.9,191.6 216.1,187.3 "/>
<polygon class="st2" points="343.6,205.3 312,159 303,172 288,150 266,182.4 273.3,182.4 288,160.7 303,182.6 312,169.6 
	340.4,211.3 387,211.3 387,205.3 "/>
<g>
	<path class="st0" d="M140.4,323.1c0,0.7-0.2,1.3-0.6,1.8c-0.4,0.5-0.8,0.8-1.4,1c-0.6,0.2-1.2,0.3-1.9,0.3h-1.2v3.7h-2.4v-9.9h3.6
		c1.2,0,2.1,0.2,2.8,0.7C140,321.3,140.4,322,140.4,323.1z M138,323.1c0-0.8-0.6-1.1-1.7-1.1h-1v2.3h1
		C137.4,324.3,138,323.9,138,323.1z"/>
	<path class="st0" d="M146.2,322.9l-0.1,2c-0.2,0-0.4-0.1-0.6-0.1c-0.5,0-1,0.2-1.2,0.5c-0.3,0.3-0.4,0.7-0.4,1.1v3.6h-2.3V323h2.2
		v1h0c0.2-0.4,0.4-0.7,0.8-0.9c0.3-0.2,0.7-0.3,1.1-0.3C145.9,322.8,146.1,322.8,146.2,322.9z"/>
	<path class="st0" d="M153.4,323.8c0.7,0.7,1.1,1.6,1.1,2.7c0,1.1-0.4,2-1.1,2.7c-0.7,0.7-1.7,1-2.7,1c-1.1,0-2-0.3-2.7-1
		c-0.7-0.7-1.1-1.6-1.1-2.7c0-1.1,0.4-2,1.1-2.7c0.7-0.7,1.7-1,2.7-1C151.8,322.8,152.7,323.1,153.4,323.8z M152.4,326.4
		c0-0.5-0.1-0.9-0.4-1.2c-0.3-0.4-0.7-0.5-1.2-0.5c-0.5,0-0.9,0.2-1.2,0.5c-0.3,0.3-0.4,0.8-0.4,1.2c0,0.5,0.1,0.9,0.4,1.3
		c0.3,0.4,0.7,0.5,1.2,0.5c0.5,0,0.9-0.2,1.2-0.5C152.2,327.3,152.4,326.9,152.4,326.4z"/>
	<path class="st0" d="M167.2,329.9h-2.3v-3.8c0-1-0.3-1.5-1-1.5c-0.4,0-0.7,0.1-0.9,0.4c-0.2,0.3-0.3,0.6-0.3,1.1v3.7h-2.3v-4
		c0-0.9-0.3-1.3-1-1.3c-0.4,0-0.6,0.1-0.8,0.4c-0.2,0.3-0.3,0.6-0.3,1.1v3.8H156V323h2.2v1h0c0.2-0.3,0.4-0.6,0.8-0.8
		c0.4-0.2,0.8-0.3,1.3-0.3c1,0,1.7,0.4,2.1,1.2c0.5-0.8,1.2-1.2,2.2-1.2c0.6,0,1.1,0.2,1.5,0.5s0.7,0.7,0.8,1.1
		c0.1,0.4,0.2,0.8,0.2,1.3V329.9z"/>
	<path class="st0" d="M175.1,323.8c0.7,0.7,1.1,1.6,1.1,2.7c0,1.1-0.4,2-1.1,2.7c-0.7,0.7-1.7,1-2.7,1c-1.1,0-2-0.3-2.7-1
		c-0.7-0.7-1.1-1.6-1.1-2.7c0-1.1,0.4-2,1.1-2.7c0.7-0.7,1.7-1,2.7-1C173.5,322.8,174.4,323.1,175.1,323.8z M174.1,326.4
		c0-0.5-0.1-0.9-0.4-1.2c-0.3-0.4-0.7-0.5-1.2-0.5c-0.5,0-0.9,0.2-1.2,0.5s-0.4,0.8-0.4,1.2c0,0.5,0.1,0.9,0.4,1.3
		c0.3,0.4,0.7,0.5,1.2,0.5c0.5,0,0.9-0.2,1.2-0.5C173.9,327.3,174.1,326.9,174.1,326.4z"/>
	<path class="st0" d="M181.9,324.7h-1.6v2.6c0,0.3,0.1,0.6,0.2,0.7c0.1,0.2,0.4,0.2,0.7,0.2c0.3,0,0.5,0,0.7-0.1l0,1.7
		c-0.4,0.1-0.8,0.2-1.3,0.2c-0.9,0-1.5-0.2-1.9-0.6c-0.4-0.4-0.6-1-0.6-1.8v-2.9H177V323h1.1v-1.8h2.2v1.8h1.6V324.7z"/>
	<path class="st0" d="M185.7,320.8c0,0.4-0.1,0.7-0.4,0.9c-0.3,0.2-0.6,0.4-0.9,0.4c-0.4,0-0.7-0.1-0.9-0.4
		c-0.3-0.2-0.4-0.5-0.4-0.9c0-0.3,0.1-0.6,0.4-0.9c0.3-0.3,0.6-0.4,0.9-0.4c0.4,0,0.7,0.1,0.9,0.4
		C185.5,320.2,185.7,320.4,185.7,320.8z M185.5,329.9h-2.3V323h2.3V329.9z"/>
	<path class="st0" d="M193.5,323.8c0.7,0.7,1.1,1.6,1.1,2.7c0,1.1-0.4,2-1.1,2.7c-0.7,0.7-1.7,1-2.7,1c-1.1,0-2-0.3-2.7-1
		c-0.7-0.7-1.1-1.6-1.1-2.7c0-1.1,0.4-2,1.1-2.7s1.7-1,2.7-1C191.8,322.8,192.8,323.1,193.5,323.8z M192.4,326.4
		c0-0.5-0.1-0.9-0.4-1.2c-0.3-0.4-0.7-0.5-1.2-0.5c-0.5,0-0.9,0.2-1.2,0.5s-0.4,0.8-0.4,1.2c0,0.5,0.1,0.9,0.4,1.3
		c0.3,0.4,0.7,0.5,1.2,0.5c0.5,0,0.9-0.2,1.2-0.5C192.3,327.3,192.4,326.9,192.4,326.4z"/>
	<path class="st0" d="M202.9,329.9h-2.3v-3.8c0-1-0.3-1.5-1-1.5c-0.4,0-0.7,0.1-0.9,0.4c-0.2,0.3-0.3,0.6-0.3,1.1v3.8h-2.3V323h2.2
		v1h0c0.2-0.3,0.4-0.6,0.8-0.8c0.4-0.2,0.8-0.3,1.3-0.3c0.9,0,1.5,0.3,1.9,0.8s0.6,1.2,0.6,2V329.9z"/>
	<path class="st0" d="M214.4,323.8c0.7,0.7,1.1,1.6,1.1,2.7c0,1.1-0.4,2-1.1,2.7c-0.7,0.7-1.7,1-2.7,1c-1.1,0-2-0.3-2.7-1
		c-0.7-0.7-1.1-1.6-1.1-2.7c0-1.1,0.4-2,1.1-2.7s1.7-1,2.7-1C212.7,322.8,213.6,323.1,214.4,323.8z M213.3,326.4
		c0-0.5-0.1-0.9-0.4-1.2c-0.3-0.4-0.7-0.5-1.2-0.5c-0.5,0-0.9,0.2-1.2,0.5c-0.3,0.3-0.4,0.8-0.4,1.2c0,0.5,0.1,0.9,0.4,1.3
		c0.3,0.4,0.7,0.5,1.2,0.5c0.5,0,0.9-0.2,1.2-0.5C213.1,327.3,213.3,326.9,213.3,326.4z"/>
	<path class="st0" d="M221.5,319.3l-0.2,1.8c-0.2-0.1-0.4-0.1-0.6-0.1c-0.7,0-1,0.4-1,1.3v0.7h1.5v1.7h-1.5v5.2h-2.3v-5.2h-1.3V323
		h1.3v-0.7c0-2.1,1-3.2,3-3.2C220.9,319.1,221.2,319.2,221.5,319.3z"/>
	<path class="st0" d="M232.6,329.9h-6.9v-9.9h6.6v2H228v1.9h4.1v1.9H228v2h4.6V329.9z"/>
	<path class="st0" d="M241.1,329.9h-2.3v-3.8c0-1-0.3-1.5-1-1.5c-0.4,0-0.7,0.1-0.9,0.4c-0.2,0.3-0.3,0.6-0.3,1.1v3.8h-2.3V323h2.2
		v1h0c0.2-0.3,0.4-0.6,0.8-0.8c0.4-0.2,0.8-0.3,1.3-0.3c0.9,0,1.5,0.3,1.9,0.8s0.6,1.2,0.6,2V329.9z"/>
	<path class="st0" d="M249.7,326.6c0,0.3,0,0.4,0,0.5h-5c0,0.4,0.2,0.7,0.5,0.9c0.3,0.3,0.7,0.4,1.1,0.4c0.7,0,1.2-0.2,1.5-0.7
		l1.6,1c-0.7,1-1.7,1.5-3.1,1.5c-1.1,0-2-0.3-2.7-1c-0.7-0.7-1.1-1.5-1.1-2.7c0-1.1,0.4-2,1.1-2.7c0.7-0.7,1.6-1,2.7-1
		c1,0,1.9,0.3,2.5,1C249.4,324.5,249.7,325.4,249.7,326.6z M244.7,325.7h2.9c0-0.4-0.1-0.7-0.4-0.9c-0.2-0.3-0.6-0.4-1-0.4
		c-0.4,0-0.8,0.1-1.1,0.4C244.8,325,244.7,325.3,244.7,325.7z"/>
	<path class="st0" d="M255.8,322.9l-0.1,2c-0.2,0-0.4-0.1-0.6-0.1c-0.5,0-1,0.2-1.2,0.5c-0.3,0.3-0.4,0.7-0.4,1.1v3.6h-2.3V323h2.2
		v1h0c0.2-0.4,0.4-0.7,0.8-0.9c0.3-0.2,0.7-0.3,1.1-0.3C255.5,322.8,255.7,322.8,255.8,322.9z"/>
	<path class="st0" d="M264.1,329.3c0,1.3-0.4,2.3-1.1,3c-0.7,0.7-1.7,1-3,1c-0.6,0-1.3-0.1-1.9-0.3c-0.7-0.2-1.2-0.5-1.7-0.8
		l1.1-1.6c0.7,0.6,1.4,0.9,2.3,0.9c0.7,0,1.1-0.2,1.5-0.5c0.3-0.3,0.5-0.8,0.5-1.4v-0.4h0c-0.5,0.6-1.2,0.9-2.1,0.9
		c-1,0-1.8-0.3-2.4-1c-0.6-0.7-0.9-1.5-0.9-2.5c0-1,0.3-1.9,0.9-2.6c0.6-0.7,1.4-1.1,2.4-1.1c1,0,1.7,0.4,2.2,1.1h0V323h2.2V329.3z
		 M261.5,327.7c0.3-0.3,0.5-0.8,0.5-1.3c0-0.5-0.2-0.9-0.5-1.2c-0.3-0.3-0.7-0.5-1.2-0.5c-0.5,0-0.9,0.2-1.2,0.5
		c-0.3,0.3-0.4,0.8-0.4,1.3c0,0.5,0.1,0.9,0.4,1.2s0.7,0.5,1.2,0.5C260.8,328.2,261.2,328,261.5,327.7z"/>
	<path class="st0" d="M273.1,323l-3.1,8c-0.3,0.8-0.7,1.4-1.1,1.7s-1.1,0.6-1.9,0.6c-0.4,0-0.8-0.1-1.3-0.2l0.3-1.9
		c0.3,0.1,0.5,0.1,0.7,0.1c0.3,0,0.6-0.1,0.7-0.2c0.2-0.1,0.3-0.4,0.4-0.7l0.2-0.6l-2.9-6.8h2.5l1.5,4.5h0l1.4-4.5H273.1z"/>
	<path class="st0" d="M278.5,325.2l-1.2-1.2c0.8-0.8,1.9-1.2,3.1-1.2c1.1,0,2,0.3,2.5,0.9c0.5,0.6,0.7,1.5,0.7,2.8v3.5h-2.1v-0.7h0
		c-0.2,0.3-0.4,0.5-0.8,0.7c-0.4,0.2-0.8,0.2-1.2,0.2c-0.4,0-0.8-0.1-1.1-0.2c-0.4-0.1-0.7-0.4-1-0.7c-0.3-0.3-0.4-0.8-0.4-1.3
		c0-1.6,1.5-2.3,4.5-2.3v-0.1c0-0.3-0.1-0.6-0.3-0.7c-0.2-0.2-0.5-0.3-0.9-0.3C279.6,324.5,279,324.7,278.5,325.2z M281.5,327.2
		v-0.2h-0.3c-1.4,0-2.1,0.3-2.1,0.9c0,0.2,0.1,0.4,0.3,0.5c0.2,0.1,0.4,0.2,0.7,0.2c0.5,0,0.8-0.1,1.1-0.4
		C281.4,327.9,281.5,327.6,281.5,327.2z"/>
	<path class="st0" d="M292.2,329.9h-2.3v-3.8c0-1-0.3-1.5-1-1.5c-0.4,0-0.7,0.1-0.9,0.4c-0.2,0.3-0.3,0.6-0.3,1.1v3.8h-2.3V323h2.2
		v1h0c0.2-0.3,0.4-0.6,0.8-0.8s0.8-0.3,1.3-0.3c0.9,0,1.5,0.3,1.9,0.8c0.4,0.6,0.6,1.2,0.6,2V329.9z"/>
	<path class="st0" d="M301.3,329.9h-2.1V329h0c-0.2,0.3-0.5,0.6-1,0.8c-0.4,0.2-0.9,0.3-1.3,0.3c-1,0-1.8-0.4-2.4-1.1
		c-0.6-0.7-0.9-1.6-0.9-2.6c0-1,0.3-1.9,0.9-2.6c0.6-0.7,1.4-1.1,2.4-1.1c0.9,0,1.6,0.3,2.1,0.9h0v-4.3h2.3V329.9z M299.1,326.5
		c0-0.5-0.2-0.9-0.5-1.2c-0.3-0.4-0.7-0.5-1.2-0.5c-0.5,0-0.9,0.2-1.2,0.5c-0.3,0.3-0.4,0.8-0.4,1.2c0,0.5,0.1,0.9,0.4,1.3
		c0.3,0.4,0.7,0.5,1.2,0.5c0.5,0,0.9-0.2,1.2-0.5C299,327.3,299.1,326.9,299.1,326.5z"/>
	<path class="st0" d="M314.8,329.9H312l-2.1-3.9h-0.8v3.9h-2.3v-9.9h3.8c0.5,0,1,0.1,1.4,0.2c0.4,0.1,0.8,0.3,1.2,0.5
		c0.4,0.2,0.7,0.5,0.9,0.9c0.2,0.4,0.3,0.9,0.3,1.4c0,0.7-0.2,1.2-0.5,1.7c-0.4,0.5-0.9,0.8-1.5,1L314.8,329.9z M311.9,323.1
		c0-0.7-0.5-1.1-1.6-1.1h-1.3v2.3h1.1C311.3,324.3,311.9,323.9,311.9,323.1z"/>
	<path class="st0" d="M322.6,326.6c0,0.3,0,0.4,0,0.5h-5c0,0.4,0.2,0.7,0.5,0.9c0.3,0.3,0.7,0.4,1.1,0.4c0.7,0,1.2-0.2,1.5-0.7
		l1.6,1c-0.7,1-1.7,1.5-3.1,1.5c-1.1,0-2-0.3-2.7-1c-0.7-0.7-1.1-1.5-1.1-2.7c0-1.1,0.4-2,1.1-2.7c0.7-0.7,1.6-1,2.7-1
		c1,0,1.9,0.3,2.5,1C322.2,324.5,322.6,325.4,322.6,326.6z M317.5,325.7h2.9c0-0.4-0.1-0.7-0.4-0.9c-0.2-0.3-0.6-0.4-1-0.4
		c-0.4,0-0.8,0.1-1.1,0.4C317.7,325,317.5,325.3,317.5,325.7z"/>
	<path class="st0" d="M329.3,323.8l-1.3,1.3c-0.4-0.4-0.9-0.6-1.4-0.6c-0.2,0-0.4,0-0.6,0.1c-0.2,0.1-0.3,0.2-0.3,0.4
		c0,0.2,0.1,0.3,0.3,0.4c0.2,0.1,0.5,0.2,1,0.3c1.5,0.3,2.2,1,2.2,2.1c0,0.8-0.3,1.4-0.9,1.8c-0.6,0.4-1.3,0.6-2.1,0.6
		c-0.6,0-1.1-0.1-1.7-0.3c-0.5-0.2-1-0.5-1.3-0.8l1.3-1.4c0.5,0.5,1,0.8,1.7,0.8c0.2,0,0.4,0,0.6-0.1c0.2-0.1,0.2-0.2,0.2-0.5
		c0-0.2-0.1-0.4-0.3-0.5c-0.2-0.1-0.6-0.2-1.1-0.3c-1.3-0.3-2-1-2-2c0-0.8,0.3-1.3,0.9-1.7c0.6-0.4,1.3-0.6,2-0.6
		C327.7,322.8,328.6,323.1,329.3,323.8z"/>
	<path class="st0" d="M336.8,323.8c0.7,0.7,1.1,1.6,1.1,2.7c0,1.1-0.4,2-1.1,2.7c-0.7,0.7-1.7,1-2.7,1c-1.1,0-2-0.3-2.7-1
		c-0.7-0.7-1.1-1.6-1.1-2.7c0-1.1,0.4-2,1.1-2.7c0.7-0.7,1.7-1,2.7-1C335.2,322.8,336.1,323.1,336.8,323.8z M335.8,326.4
		c0-0.5-0.1-0.9-0.4-1.2c-0.3-0.4-0.7-0.5-1.2-0.5c-0.5,0-0.9,0.2-1.2,0.5c-0.3,0.3-0.4,0.8-0.4,1.2c0,0.5,0.1,0.9,0.4,1.3
		c0.3,0.4,0.7,0.5,1.2,0.5c0.5,0,0.9-0.2,1.2-0.5C335.6,327.3,335.8,326.9,335.8,326.4z"/>
	<path class="st0" d="M346.2,329.9H344v-1h0c-0.2,0.3-0.4,0.6-0.8,0.8c-0.4,0.2-0.8,0.3-1.3,0.3c-0.9,0-1.5-0.3-1.9-0.8
		c-0.4-0.6-0.6-1.2-0.6-2V323h2.3v3.8c0,1,0.3,1.5,1,1.5c0.4,0,0.7-0.1,0.9-0.4c0.2-0.3,0.3-0.6,0.3-1.1V323h2.3V329.9z"/>
	<path class="st0" d="M352.6,322.9l-0.1,2c-0.2,0-0.4-0.1-0.6-0.1c-0.5,0-1,0.2-1.2,0.5c-0.3,0.3-0.4,0.7-0.4,1.1v3.6H348V323h2.2v1
		h0c0.2-0.4,0.4-0.7,0.8-0.9c0.3-0.2,0.7-0.3,1.1-0.3C352.3,322.8,352.5,322.8,352.6,322.9z"/>
	<path class="st0" d="M359.7,323.7l-1.3,1.5c-0.1-0.2-0.3-0.3-0.5-0.4c-0.2-0.1-0.5-0.2-0.7-0.2c-0.5,0-0.9,0.2-1.2,0.5
		c-0.3,0.3-0.4,0.8-0.4,1.3s0.1,0.9,0.4,1.3c0.3,0.3,0.7,0.5,1.2,0.5c0.5,0,1-0.2,1.2-0.5l1.3,1.5c-0.6,0.6-1.5,0.9-2.6,0.9
		c-1.1,0-2.1-0.3-2.8-1c-0.7-0.7-1.1-1.6-1.1-2.7c0-1.1,0.4-2,1.1-2.7c0.7-0.7,1.7-1,2.8-1c0.5,0,1,0.1,1.5,0.3
		C359,323.2,359.4,323.4,359.7,323.7z"/>
	<path class="st0" d="M367.4,326.6c0,0.3,0,0.4,0,0.5h-5c0,0.4,0.2,0.7,0.5,0.9c0.3,0.3,0.7,0.4,1.1,0.4c0.7,0,1.2-0.2,1.5-0.7
		l1.6,1c-0.7,1-1.7,1.5-3.1,1.5c-1.1,0-2-0.3-2.7-1c-0.7-0.7-1.1-1.5-1.1-2.7c0-1.1,0.4-2,1.1-2.7c0.7-0.7,1.6-1,2.7-1
		c1,0,1.9,0.3,2.5,1C367.1,324.5,367.4,325.4,367.4,326.6z M362.4,325.7h2.9c0-0.4-0.1-0.7-0.4-0.9c-0.2-0.3-0.6-0.4-1-0.4
		c-0.4,0-0.8,0.1-1.1,0.4C362.5,325,362.4,325.3,362.4,325.7z"/>
	<path class="st0" d="M119.9,346.7H113v-9.9h6.6v2h-4.3v1.9h4.1v1.9h-4.1v2h4.6V346.7z"/>
	<path class="st0" d="M130.6,336l-0.2,1.8c-0.2-0.1-0.4-0.1-0.6-0.1c-0.7,0-1,0.4-1,1.3v0.7h1.5v1.7h-1.5v5.2h-2.3v-5.2h-2.4v5.2
		h-2.3v-5.2h-1.3v-1.7h1.3v-0.7c0-2.1,1-3.2,3-3.2c0.4,0,0.8,0,1.1,0.1l-0.2,1.8c-0.2-0.1-0.4-0.1-0.6-0.1c-0.7,0-1,0.4-1,1.3v0.7
		h2.4v-0.7c0-2.1,1-3.2,3-3.2C130,335.9,130.3,335.9,130.6,336z M133.8,337.5c0,0.4-0.1,0.7-0.4,0.9c-0.3,0.2-0.6,0.4-0.9,0.4
		c-0.4,0-0.7-0.1-0.9-0.4c-0.3-0.2-0.4-0.5-0.4-0.9c0-0.3,0.1-0.6,0.4-0.9c0.3-0.3,0.6-0.4,0.9-0.4c0.4,0,0.7,0.1,0.9,0.4
		C133.7,336.9,133.8,337.2,133.8,337.5z M133.6,346.7h-2.3v-6.9h2.3V346.7z"/>
	<path class="st0" d="M141.5,340.4l-1.3,1.5c-0.1-0.2-0.3-0.3-0.5-0.4c-0.2-0.1-0.5-0.2-0.7-0.2c-0.5,0-0.9,0.2-1.2,0.5
		c-0.3,0.3-0.4,0.8-0.4,1.3s0.1,0.9,0.4,1.3c0.3,0.3,0.7,0.5,1.2,0.5c0.5,0,1-0.2,1.2-0.5l1.3,1.5c-0.6,0.6-1.5,0.9-2.6,0.9
		c-1.1,0-2.1-0.3-2.8-1c-0.7-0.7-1.1-1.6-1.1-2.7c0-1.1,0.4-2,1.1-2.7c0.7-0.7,1.7-1,2.8-1c0.5,0,1,0.1,1.5,0.3
		C140.9,339.9,141.2,340.2,141.5,340.4z"/>
	<path class="st0" d="M145,337.5c0,0.4-0.1,0.7-0.4,0.9c-0.3,0.2-0.6,0.4-0.9,0.4c-0.4,0-0.7-0.1-0.9-0.4c-0.3-0.2-0.4-0.5-0.4-0.9
		c0-0.3,0.1-0.6,0.4-0.9c0.3-0.3,0.6-0.4,0.9-0.4c0.4,0,0.7,0.1,0.9,0.4C144.8,336.9,145,337.2,145,337.5z M144.8,346.7h-2.3v-6.9
		h2.3V346.7z"/>
	<path class="st0" d="M153.4,343.3c0,0.3,0,0.4,0,0.5h-5c0,0.4,0.2,0.7,0.5,0.9c0.3,0.3,0.7,0.4,1.1,0.4c0.7,0,1.2-0.2,1.5-0.7
		l1.6,1c-0.7,1-1.7,1.5-3.1,1.5c-1.1,0-2-0.3-2.7-1c-0.7-0.7-1.1-1.5-1.1-2.7c0-1.1,0.4-2,1.1-2.7c0.7-0.7,1.6-1,2.7-1
		c1,0,1.9,0.3,2.5,1C153.1,341.2,153.4,342.1,153.4,343.3z M148.4,342.4h2.9c0-0.4-0.1-0.7-0.4-0.9c-0.2-0.3-0.6-0.4-1-0.4
		c-0.4,0-0.8,0.1-1.1,0.4C148.6,341.7,148.4,342,148.4,342.4z"/>
	<path class="st0" d="M161.8,346.7h-2.3v-3.8c0-1-0.3-1.5-1-1.5c-0.4,0-0.7,0.1-0.9,0.4c-0.2,0.3-0.3,0.6-0.3,1.1v3.8h-2.3v-6.9h2.2
		v1h0c0.2-0.3,0.4-0.6,0.8-0.8c0.4-0.2,0.8-0.3,1.3-0.3c0.9,0,1.5,0.3,1.9,0.8c0.4,0.6,0.6,1.2,0.6,2V346.7z"/>
	<path class="st0" d="M169.6,340.4l-1.3,1.5c-0.1-0.2-0.3-0.3-0.5-0.4c-0.2-0.1-0.5-0.2-0.7-0.2c-0.5,0-0.9,0.2-1.2,0.5
		c-0.3,0.3-0.4,0.8-0.4,1.3s0.1,0.9,0.4,1.3c0.3,0.3,0.7,0.5,1.2,0.5c0.5,0,1-0.2,1.2-0.5l1.3,1.5c-0.6,0.6-1.5,0.9-2.6,0.9
		c-1.1,0-2.1-0.3-2.8-1c-0.7-0.7-1.1-1.6-1.1-2.7c0-1.1,0.4-2,1.1-2.7c0.7-0.7,1.7-1,2.8-1c0.5,0,1,0.1,1.5,0.3
		C169,339.9,169.4,340.2,169.6,340.4z"/>
	<path class="st0" d="M178,339.7l-3.1,8c-0.3,0.8-0.7,1.4-1.1,1.7c-0.5,0.4-1.1,0.6-1.9,0.6c-0.4,0-0.8-0.1-1.3-0.2l0.3-1.9
		c0.3,0.1,0.5,0.1,0.7,0.1c0.3,0,0.6-0.1,0.7-0.2c0.2-0.1,0.3-0.4,0.4-0.7l0.2-0.6l-2.9-6.8h2.5l1.5,4.5h0l1.4-4.5H178z"/>
	<path class="st0" d="M184.8,337.5c0,0.4-0.1,0.7-0.4,0.9c-0.3,0.2-0.6,0.4-0.9,0.4c-0.4,0-0.7-0.1-0.9-0.4
		c-0.3-0.2-0.4-0.5-0.4-0.9c0-0.3,0.1-0.6,0.4-0.9c0.3-0.3,0.6-0.4,0.9-0.4c0.4,0,0.7,0.1,0.9,0.4
		C184.7,336.9,184.8,337.2,184.8,337.5z M184.7,346.7h-2.3v-6.9h2.3V346.7z"/>
	<path class="st0" d="M193.3,346.7H191v-3.8c0-1-0.3-1.5-1-1.5c-0.4,0-0.7,0.1-0.9,0.4c-0.2,0.3-0.3,0.6-0.3,1.1v3.8h-2.3v-6.9h2.2
		v1h0c0.2-0.3,0.4-0.6,0.8-0.8c0.4-0.2,0.8-0.3,1.3-0.3c0.9,0,1.5,0.3,1.9,0.8s0.6,1.2,0.6,2V346.7z"/>
	<path class="st0" d="M205.7,338.8h-2.8v7.8h-2.4v-7.8h-2.8v-2h8V338.8z"/>
	<path class="st0" d="M211.9,340.5c0.7,0.7,1.1,1.6,1.1,2.7c0,1.1-0.4,2-1.1,2.7c-0.7,0.7-1.7,1-2.7,1c-1.1,0-2-0.3-2.7-1
		c-0.7-0.7-1.1-1.6-1.1-2.7c0-1.1,0.4-2,1.1-2.7c0.7-0.7,1.7-1,2.7-1C210.3,339.5,211.2,339.8,211.9,340.5z M210.8,343.2
		c0-0.5-0.1-0.9-0.4-1.2c-0.3-0.4-0.7-0.5-1.2-0.5c-0.5,0-0.9,0.2-1.2,0.5c-0.3,0.3-0.4,0.8-0.4,1.2c0,0.5,0.1,0.9,0.4,1.3
		c0.3,0.4,0.7,0.5,1.2,0.5c0.5,0,0.9-0.2,1.2-0.5C210.7,344.1,210.8,343.6,210.8,343.2z"/>
	<path class="st0" d="M221.2,346.7H219v-1h0c-0.2,0.3-0.4,0.6-0.8,0.8c-0.4,0.2-0.8,0.3-1.3,0.3c-0.9,0-1.5-0.3-1.9-0.8
		c-0.4-0.6-0.6-1.2-0.6-2v-4.3h2.3v3.8c0,1,0.3,1.5,1,1.5c0.4,0,0.7-0.1,0.9-0.4c0.2-0.3,0.3-0.6,0.3-1.1v-3.7h2.3V346.7z"/>
	<path class="st0" d="M227.6,339.6l-0.1,2c-0.2,0-0.4-0.1-0.6-0.1c-0.5,0-1,0.2-1.2,0.5s-0.4,0.7-0.4,1.1v3.6H223v-6.9h2.2v1h0
		c0.2-0.4,0.4-0.7,0.8-0.9c0.3-0.2,0.7-0.3,1.1-0.3C227.4,339.5,227.5,339.5,227.6,339.6z"/>
	<path class="st0" d="M231.1,337.5c0,0.4-0.1,0.7-0.4,0.9c-0.3,0.2-0.6,0.4-0.9,0.4c-0.4,0-0.7-0.1-0.9-0.4
		c-0.3-0.2-0.4-0.5-0.4-0.9c0-0.3,0.1-0.6,0.4-0.9c0.3-0.3,0.6-0.4,0.9-0.4c0.4,0,0.7,0.1,0.9,0.4
		C231,336.9,231.1,337.2,231.1,337.5z M230.9,346.7h-2.3v-6.9h2.3V346.7z"/>
	<path class="st0" d="M238.2,340.5l-1.3,1.3c-0.4-0.4-0.9-0.6-1.4-0.6c-0.2,0-0.4,0-0.6,0.1s-0.3,0.2-0.3,0.4s0.1,0.3,0.3,0.4
		c0.2,0.1,0.5,0.2,1,0.3c1.5,0.3,2.2,1,2.2,2.1c0,0.8-0.3,1.4-0.9,1.8c-0.6,0.4-1.3,0.6-2.1,0.6c-0.6,0-1.1-0.1-1.7-0.3
		c-0.5-0.2-1-0.5-1.3-0.8l1.3-1.4c0.5,0.5,1,0.8,1.7,0.8c0.2,0,0.4,0,0.6-0.1c0.2-0.1,0.2-0.2,0.2-0.5c0-0.2-0.1-0.4-0.3-0.5
		c-0.2-0.1-0.6-0.2-1.1-0.3c-1.3-0.3-2-1-2-2c0-0.8,0.3-1.3,0.9-1.7c0.6-0.4,1.3-0.6,2-0.6C236.5,339.5,237.5,339.8,238.2,340.5z"/>
	<path class="st0" d="M250.6,346.7h-2.3v-3.8c0-1-0.3-1.5-1-1.5c-0.4,0-0.7,0.1-0.9,0.4c-0.2,0.3-0.3,0.6-0.3,1.1v3.7h-2.3v-4
		c0-0.9-0.3-1.3-1-1.3c-0.4,0-0.6,0.1-0.8,0.4c-0.2,0.3-0.3,0.6-0.3,1.1v3.8h-2.3v-6.9h2.2v1h0c0.2-0.3,0.4-0.6,0.8-0.8
		c0.4-0.2,0.8-0.3,1.3-0.3c1,0,1.7,0.4,2.1,1.2c0.5-0.8,1.2-1.2,2.2-1.2c0.6,0,1.1,0.2,1.5,0.5c0.4,0.3,0.7,0.7,0.8,1.1
		c0.1,0.4,0.2,0.8,0.2,1.3V346.7z"/>
	<path class="st0" d="M262.7,337.8l-1.5,1.6c-0.2-0.3-0.5-0.5-0.8-0.6c-0.3-0.2-0.7-0.2-1-0.2c-0.4,0-0.7,0.1-1,0.2
		s-0.4,0.4-0.4,0.8c0,0.2,0,0.3,0.1,0.4c0.1,0.1,0.2,0.2,0.3,0.3c0.2,0.1,0.3,0.2,0.5,0.2c0.1,0.1,0.4,0.1,0.6,0.2
		c0.4,0.1,0.6,0.2,0.8,0.3c0.2,0.1,0.5,0.2,0.8,0.4c0.3,0.2,0.6,0.4,0.7,0.5c0.2,0.2,0.3,0.4,0.5,0.7c0.1,0.3,0.2,0.7,0.2,1
		c0,1.1-0.4,1.9-1.1,2.4c-0.7,0.6-1.6,0.8-2.7,0.8c-0.7,0-1.4-0.1-2.1-0.4s-1.2-0.6-1.6-1l1.6-1.6c0.2,0.3,0.6,0.6,1,0.8
		c0.4,0.2,0.8,0.3,1.2,0.3c0.4,0,0.7-0.1,1-0.3c0.3-0.2,0.4-0.4,0.4-0.8c0-0.1,0-0.3-0.1-0.4c-0.1-0.1-0.1-0.2-0.2-0.3
		c-0.1-0.1-0.2-0.2-0.4-0.3c-0.2-0.1-0.4-0.2-0.5-0.2c-0.1-0.1-0.4-0.1-0.7-0.2c-0.4-0.1-0.7-0.2-0.9-0.4c-0.3-0.1-0.5-0.3-0.8-0.5
		c-0.3-0.2-0.5-0.5-0.6-0.8c-0.1-0.3-0.2-0.7-0.2-1.1c0-0.5,0.1-1,0.3-1.4c0.2-0.4,0.5-0.7,0.9-1c0.4-0.2,0.8-0.4,1.2-0.5
		c0.4-0.1,0.9-0.2,1.4-0.2c0.6,0,1.2,0.1,1.7,0.3C261.8,337.1,262.3,337.4,262.7,337.8z"/>
	<path class="st0" d="M275.5,346.7h-2.3l0.1-7h0l-2.6,7h-1.7l-2.5-7h0l0.1,7h-2.2v-9.9h3.4l2.2,6.3h0.1l2.1-6.3h3.4V346.7z"/>
	<path class="st0" d="M284.5,346.7h-6.9v-9.9h6.6v2h-4.3v1.9h4.1v1.9h-4.1v2h4.6V346.7z"/>
	<path class="st0" d="M291.4,340.5l-1.3,1.3c-0.4-0.4-0.9-0.6-1.4-0.6c-0.2,0-0.4,0-0.6,0.1c-0.2,0.1-0.3,0.2-0.3,0.4
		s0.1,0.3,0.3,0.4c0.2,0.1,0.5,0.2,1,0.3c1.5,0.3,2.2,1,2.2,2.1c0,0.8-0.3,1.4-0.9,1.8c-0.6,0.4-1.3,0.6-2.1,0.6
		c-0.6,0-1.1-0.1-1.7-0.3c-0.5-0.2-1-0.5-1.3-0.8l1.3-1.4c0.5,0.5,1,0.8,1.7,0.8c0.2,0,0.4,0,0.6-0.1c0.2-0.1,0.2-0.2,0.2-0.5
		c0-0.2-0.1-0.4-0.3-0.5c-0.2-0.1-0.6-0.2-1.1-0.3c-1.3-0.3-2-1-2-2c0-0.8,0.3-1.3,0.9-1.7c0.6-0.4,1.3-0.6,2-0.6
		C289.8,339.5,290.7,339.8,291.4,340.5z"/>
	<path class="st0" d="M298.6,337.5c0,0.4-0.1,0.7-0.4,0.9c-0.3,0.2-0.6,0.4-0.9,0.4c-0.4,0-0.7-0.1-0.9-0.4
		c-0.3-0.2-0.4-0.5-0.4-0.9c0-0.3,0.1-0.6,0.4-0.9c0.3-0.3,0.6-0.4,0.9-0.4c0.4,0,0.7,0.1,0.9,0.4
		C298.5,336.9,298.6,337.2,298.6,337.5z M298.5,346.7h-2.3v-6.9h2.3V346.7z"/>
	<path class="st0" d="M307.1,346.7h-2.3v-3.8c0-1-0.3-1.5-1-1.5c-0.4,0-0.7,0.1-0.9,0.4c-0.2,0.3-0.3,0.6-0.3,1.1v3.8h-2.3v-6.9h2.2
		v1h0c0.2-0.3,0.4-0.6,0.8-0.8c0.4-0.2,0.8-0.3,1.3-0.3c0.9,0,1.5,0.3,1.9,0.8s0.6,1.2,0.6,2V346.7z"/>
	<path class="st0" d="M321.6,346.7h-3.1l-3.7-4.5h0v4.5h-2.3v-9.9h2.3v4h0l3.5-4h3l-4.2,4.5L321.6,346.7z"/>
	<path class="st0" d="M328.6,339.7l-3.1,8c-0.3,0.8-0.7,1.4-1.1,1.7s-1.1,0.6-1.9,0.6c-0.4,0-0.8-0.1-1.3-0.2l0.3-1.9
		c0.3,0.1,0.5,0.1,0.7,0.1c0.3,0,0.6-0.1,0.7-0.2c0.2-0.1,0.3-0.4,0.4-0.7l0.2-0.6l-2.9-6.8h2.5l1.5,4.5h0l1.4-4.5H328.6z"/>
	<path class="st0" d="M334.1,339.6l-0.1,2c-0.2,0-0.4-0.1-0.6-0.1c-0.5,0-1,0.2-1.2,0.5c-0.3,0.3-0.4,0.7-0.4,1.1v3.6h-2.3v-6.9h2.2
		v1h0c0.2-0.4,0.4-0.7,0.8-0.9c0.3-0.2,0.7-0.3,1.1-0.3C333.9,339.5,334,339.5,334.1,339.6z"/>
	<path class="st0" d="M342.5,346c0,1.3-0.4,2.3-1.1,3c-0.7,0.7-1.7,1-3,1c-0.6,0-1.3-0.1-1.9-0.3c-0.7-0.2-1.2-0.5-1.7-0.8l1.1-1.6
		c0.7,0.6,1.4,0.9,2.3,0.9c0.7,0,1.1-0.2,1.5-0.5c0.3-0.3,0.5-0.8,0.5-1.4v-0.4h0c-0.5,0.6-1.2,0.9-2.1,0.9c-1,0-1.8-0.3-2.4-1
		c-0.6-0.7-0.9-1.5-0.9-2.5c0-1,0.3-1.9,0.9-2.6c0.6-0.7,1.4-1.1,2.4-1.1c1,0,1.7,0.4,2.2,1.1h0v-0.9h2.2V346z M339.9,344.4
		c0.3-0.3,0.5-0.8,0.5-1.3s-0.2-0.9-0.5-1.2c-0.3-0.3-0.7-0.5-1.2-0.5c-0.5,0-0.9,0.2-1.2,0.5s-0.4,0.8-0.4,1.3
		c0,0.5,0.1,0.9,0.4,1.2c0.3,0.3,0.7,0.5,1.2,0.5C339.2,344.9,339.6,344.7,339.9,344.4z"/>
	<path class="st0" d="M351.4,339.7l-3.1,8c-0.3,0.8-0.7,1.4-1.1,1.7s-1.1,0.6-1.9,0.6c-0.4,0-0.8-0.1-1.3-0.2l0.3-1.9
		c0.3,0.1,0.5,0.1,0.7,0.1c0.3,0,0.6-0.1,0.7-0.2c0.2-0.1,0.3-0.4,0.4-0.7l0.2-0.6l-2.9-6.8h2.5l1.5,4.5h0l1.4-4.5H351.4z"/>
	<path class="st0" d="M358.3,346.7h-6.2v-1.8l3.3-3.4h-3.1v-1.8h5.9v1.7l-3.4,3.5h3.5V346.7z"/>
	<path class="st0" d="M365.3,340.5l-1.3,1.3c-0.4-0.4-0.9-0.6-1.4-0.6c-0.2,0-0.4,0-0.6,0.1c-0.2,0.1-0.3,0.2-0.3,0.4
		s0.1,0.3,0.3,0.4c0.2,0.1,0.5,0.2,1,0.3c1.5,0.3,2.2,1,2.2,2.1c0,0.8-0.3,1.4-0.9,1.8c-0.6,0.4-1.3,0.6-2.1,0.6
		c-0.6,0-1.1-0.1-1.7-0.3c-0.5-0.2-1-0.5-1.3-0.8l1.3-1.4c0.5,0.5,1,0.8,1.7,0.8c0.2,0,0.4,0,0.6-0.1c0.2-0.1,0.2-0.2,0.2-0.5
		c0-0.2-0.1-0.4-0.3-0.5c-0.2-0.1-0.6-0.2-1.1-0.3c-1.3-0.3-2-1-2-2c0-0.8,0.3-1.3,0.9-1.7c0.6-0.4,1.3-0.6,2-0.6
		C363.6,339.5,364.6,339.8,365.3,340.5z"/>
	<path class="st0" d="M371,341.4h-1.6v2.6c0,0.3,0.1,0.6,0.2,0.7c0.1,0.2,0.4,0.2,0.7,0.2c0.3,0,0.5,0,0.7-0.1l0,1.7
		c-0.4,0.1-0.8,0.2-1.3,0.2c-0.9,0-1.5-0.2-1.9-0.6c-0.4-0.4-0.6-1-0.6-1.8v-2.9H366v-1.7h1.1v-1.8h2.2v1.8h1.6V341.4z"/>
	<path class="st0" d="M373.3,341.9l-1.2-1.2c0.8-0.8,1.9-1.2,3.1-1.2c1.1,0,2,0.3,2.5,0.9c0.5,0.6,0.7,1.5,0.7,2.8v3.5h-2.1v-0.7h0
		c-0.2,0.3-0.4,0.5-0.8,0.7c-0.4,0.2-0.8,0.2-1.2,0.2c-0.4,0-0.8-0.1-1.1-0.2c-0.4-0.1-0.7-0.4-1-0.7c-0.3-0.3-0.4-0.8-0.4-1.3
		c0-1.6,1.5-2.3,4.5-2.3v-0.1c0-0.3-0.1-0.6-0.3-0.7c-0.2-0.2-0.5-0.3-0.9-0.3C374.4,341.2,373.8,341.4,373.3,341.9z M376.3,343.9
		v-0.2H376c-1.4,0-2.1,0.3-2.1,0.9c0,0.2,0.1,0.4,0.3,0.5c0.2,0.1,0.4,0.2,0.7,0.2c0.5,0,0.8-0.1,1.1-0.4
		C376.2,344.7,376.3,344.3,376.3,343.9z"/>
	<path class="st0" d="M387,346.7h-2.3v-3.8c0-1-0.3-1.5-1-1.5c-0.4,0-0.7,0.1-0.9,0.4c-0.2,0.3-0.3,0.6-0.3,1.1v3.8h-2.3v-6.9h2.2v1
		h0c0.2-0.3,0.4-0.6,0.8-0.8c0.4-0.2,0.8-0.3,1.3-0.3c0.9,0,1.5,0.3,1.9,0.8c0.4,0.6,0.6,1.2,0.6,2V346.7z"/>
</g>
</svg>
